<svg width="20" height="20" viewBox="0 0 20 20" fill="none" xmlns="http://www.w3.org/2000/svg">
<path d="M19.92 6.15999C19.92 5.6298 19.4902 5.19999 18.96 5.19999C18.4298 5.19999 18 5.6298 18 6.15999H19.92ZM8.72 18C8.18983 18 7.76 18.4298 7.76 18.96C7.76 19.4902 8.18983 19.92 8.72 19.92V18ZM18 6.15999C18 6.69018 18.4298 7.11999 18.96 7.11999C19.4902 7.11999 19.92 6.69018 19.92 6.15999H18ZM8.72 0.0799866C8.18983 0.0799866 7.76 0.509798 7.76 1.03999C7.76 1.57018 8.18983 1.99999 8.72 1.99999V0.0799866ZM18.96 7.11999C19.4902 7.11999 19.92 6.69018 19.92 6.15999C19.92 5.6298 19.4902 5.19999 18.96 5.19999V7.11999ZM8.72 5.19999C8.18983 5.19999 7.76 5.6298 7.76 6.15999C7.76 6.69018 8.18983 7.11999 8.72 7.11999V5.19999ZM2 9.99999C2 9.46981 1.57019 9.03999 1.04 9.03999C0.509813 9.03999 0.0800018 9.46981 0.0800018 9.99999H2ZM8.72 19.92C9.25018 19.92 9.68 19.4902 9.68 18.96C9.68 18.4298 9.25018 18 8.72 18V19.92ZM0.0800018 9.99999C0.0800018 10.5302 0.509813 10.96 1.04 10.96C1.57019 10.96 2 10.5302 2 9.99999H0.0800018ZM8.72 1.99999C9.25018 1.99999 9.68 1.57018 9.68 1.03999C9.68 0.509798 9.25018 0.0799866 8.72 0.0799866V1.99999ZM1.04 9.03999C0.509813 9.03999 0.0800018 9.46981 0.0800018 9.99999C0.0800018 10.5302 0.509813 10.96 1.04 10.96V9.03999ZM8.72 10.96C9.25018 10.96 9.68 10.5302 9.68 9.99999C9.68 9.46981 9.25018 9.03999 8.72 9.03999V10.96ZM9.68 9.99999C9.68 9.46981 9.25018 9.03999 8.72 9.03999C8.18983 9.03999 7.76 9.46981 7.76 9.99999H9.68ZM7.76 18.96C7.76 19.4902 8.18983 19.92 8.72 19.92C9.25018 19.92 9.68 19.4902 9.68 18.96H7.76ZM7.76 9.99999C7.76 10.5302 8.18983 10.96 8.72 10.96C9.25018 10.96 9.68 10.5302 9.68 9.99999H7.76ZM9.68 6.15999C9.68 5.6298 9.25018 5.19999 8.72 5.19999C8.18983 5.19999 7.76 5.6298 7.76 6.15999H9.68ZM9.68 1.03999C9.68 0.509798 9.25018 0.0799866 8.72 0.0799866C8.18983 0.0799866 7.76 0.509798 7.76 1.03999H9.68ZM7.76 6.15999C7.76 6.69018 8.18983 7.11999 8.72 7.11999C9.25018 7.11999 9.68 6.69018 9.68 6.15999H7.76ZM18 6.15999V13.84H19.92V6.15999H18ZM18 13.84C18 16.1375 16.1375 18 13.84 18V19.92C17.198 19.92 19.92 17.1979 19.92 13.84H18ZM13.84 18H8.72V19.92H13.84V18ZM19.92 6.15999C19.92 2.8021 17.198 0.0799866 13.84 0.0799866V1.99999C16.1375 1.99999 18 3.86248 18 6.15999H19.92ZM13.84 0.0799866H8.72V1.99999H13.84V0.0799866ZM18.96 5.19999H8.72V7.11999H18.96V5.19999ZM0.0800018 9.99999V13.84H2V9.99999H0.0800018ZM0.0800018 13.84C0.0800018 17.1979 2.80211 19.92 6.16 19.92V18C3.86249 18 2 16.1375 2 13.84H0.0800018ZM6.16 19.92H8.72V18H6.16V19.92ZM2 9.99999V6.15999H0.0800018V9.99999H2ZM2 6.15999C2 3.86248 3.86249 1.99999 6.16 1.99999V0.0799866C2.80211 0.0799866 0.0800018 2.8021 0.0800018 6.15999H2ZM6.16 1.99999H8.72V0.0799866H6.16V1.99999ZM1.04 10.96H8.72V9.03999H1.04V10.96ZM7.76 9.99999V18.96H9.68V9.99999H7.76ZM9.68 9.99999V6.15999H7.76V9.99999H9.68ZM7.76 1.03999V6.15999H9.68V1.03999H7.76Z" fill="#1A1A1A"/>
</svg>
