<svg width="20" height="20" viewBox="0 0 20 20" fill="none" xmlns="http://www.w3.org/2000/svg">
<path fill-rule="evenodd" clip-rule="evenodd" d="M9.99996 18.3333C14.6023 18.3333 18.3333 14.6023 18.3333 10C18.3333 5.39763 14.6023 1.66667 9.99996 1.66667C5.39758 1.66667 1.66663 5.39763 1.66663 10C1.66663 14.6023 5.39758 18.3333 9.99996 18.3333ZM9.05104 7.8028L8.94179 7.99875C8.82179 8.21398 8.76179 8.3216 8.66829 8.39259C8.57471 8.46359 8.45821 8.49 8.22525 8.54267L8.01313 8.59067C7.19325 8.77617 6.7833 8.86892 6.68577 9.18259C6.58823 9.49626 6.86771 9.823 7.42666 10.4767L7.57127 10.6458C7.7301 10.8315 7.80952 10.9243 7.84525 11.0393C7.88098 11.1542 7.86897 11.278 7.84495 11.5258L7.82309 11.7515C7.73858 12.6235 7.69633 13.0596 7.95168 13.2534C8.20702 13.4473 8.59088 13.2705 9.35854 12.9171L9.55713 12.8256C9.77529 12.7252 9.88438 12.6749 9.99996 12.6749C10.1155 12.6749 10.2246 12.7252 10.4428 12.8256L10.6414 12.9171C11.409 13.2705 11.7929 13.4473 12.0482 13.2534C12.3036 13.0596 12.2613 12.6235 12.1768 11.7515L12.155 11.5258C12.131 11.278 12.119 11.1542 12.1547 11.0393C12.1904 10.9243 12.2698 10.8315 12.4286 10.6458L12.5733 10.4767C13.1322 9.823 13.4117 9.49626 13.3141 9.18259C13.2166 8.86892 12.8067 8.77617 11.9868 8.59067L11.7746 8.54267C11.5417 8.49 11.4252 8.46359 11.3316 8.39259C11.2381 8.32161 11.1781 8.21399 11.0581 7.99876L10.9489 7.8028C10.5267 7.04538 10.3155 6.66667 9.99996 6.66667C9.68438 6.66667 9.47321 7.04539 9.05104 7.8028Z" fill="#316303"/>
</svg>
