<svg width="32" height="32" viewBox="0 0 32 32" fill="none" xmlns="http://www.w3.org/2000/svg">
<path opacity="0.1" fill-rule="evenodd" clip-rule="evenodd" d="M16 4C6.118 4 4 6.118 4 16C4 25.882 6.118 28 16 28C25.882 28 28 25.882 28 16C28 6.118 25.882 4 16 4ZM15.3333 10.3333C12.5719 10.3333 10.3333 12.5719 10.3333 15.3333C10.3333 18.0948 12.5719 20.3333 15.3333 20.3333C18.0948 20.3333 20.3333 18.0948 20.3333 15.3333C20.3333 12.5719 18.0948 10.3333 15.3333 10.3333Z" fill="#DAFDBA"/>
<path d="M4 16C4 6.118 6.118 4 16 4C25.882 4 28 6.118 28 16C28 25.882 25.882 28 16 28C6.118 28 4 25.882 4 16Z" stroke="#DAFDBA" stroke-width="2"/>
<path d="M18.6666 18.6667L21.3333 21.3333" stroke="#DAFDBA" stroke-width="2" stroke-linecap="round" stroke-linejoin="round"/>
<path d="M20 15.3333C20 17.9107 17.9106 20 15.3333 20C12.756 20 10.6666 17.9107 10.6666 15.3333C10.6666 12.756 12.756 10.6667 15.3333 10.6667C17.9106 10.6667 20 12.756 20 15.3333Z" stroke="#DAFDBA" stroke-width="2"/>
</svg>
