<svg width="32" height="32" viewBox="0 0 32 32" fill="none" xmlns="http://www.w3.org/2000/svg">
<path opacity="0.5" d="M10.4574 5.06948C13.1624 3.4676 14.5149 2.66667 16 2.66667C17.4851 2.66667 18.8376 3.4676 21.5425 5.06948L22.4575 5.61128C25.1624 7.21316 26.5149 8.0141 27.2575 9.33334C28 10.6526 28 12.2545 28 15.4583V16.5417C28 19.7456 28 21.3475 27.2575 22.6667C26.5149 23.9859 25.1624 24.7868 22.4575 26.3887L21.5425 26.9305C18.8376 28.5324 17.4851 29.3333 16 29.3333C14.5149 29.3333 13.1624 28.5324 10.4574 26.9305L9.54256 26.3887C6.8376 24.7868 5.48512 23.9859 4.74256 22.6667C4 21.3475 4 19.7456 4 16.5417V15.4583C4 12.2545 4 10.6526 4.74256 9.33334C5.48512 8.0141 6.8376 7.21316 9.54256 5.61128L10.4574 5.06948Z" stroke="#DAFDBA" stroke-width="2"/>
<path d="M16 20C18.2091 20 20 18.2091 20 16C20 13.7909 18.2091 12 16 12C13.7909 12 12 13.7909 12 16C12 18.2091 13.7909 20 16 20Z" stroke="#DAFDBA" stroke-width="2"/>
</svg>
